<?xml version="1.0" standalone="no"?>
<!DOCTYPE svg PUBLIC "-//W3C//DTD SVG 20010904//EN"
 "http://www.w3.org/TR/2001/REC-SVG-20010904/DTD/svg10.dtd">
<svg version="1.0" xmlns="http://www.w3.org/2000/svg"
 width="512.000000pt" height="512.000000pt" viewBox="0 0 512.000000 512.000000"
 preserveAspectRatio="xMidYMid meet">
<metadata>
Created by potrace 1.16, written by Peter Selinger 2001-2019
</metadata>
<g transform="translate(0.000000,512.000000) scale(0.100000,-0.100000)"
fill="#000000" stroke="none">
<path d="M2010 4508 c-250 -10 -282 -20 -325 -92 -21 -36 -25 -55 -25 -124 l0
-82 -79 0 c-64 0 -84 -4 -111 -23 -61 -40 -75 -77 -78 -213 l-4 -122 -44 -5
c-29 -3 -53 -13 -67 -28 -13 -13 -32 -29 -42 -35 -34 -19 -31 -109 9 -284 72
-315 103 -550 93 -705 -7 -120 -67 -409 -117 -570 -89 -285 -100 -354 -100
-618 0 -255 34 -524 79 -629 26 -61 93 -134 137 -148 99 -33 184 44 222 200
17 68 19 72 35 56 12 -12 17 -34 17 -70 0 -106 39 -170 134 -216 79 -39 251
-75 434 -90 75 -6 156 -14 180 -16 l42 -5 0 -54 c0 -44 4 -57 22 -69 12 -9 30
-16 40 -16 16 0 18 -11 18 -107 0 -60 3 -124 6 -144 l6 -35 -134 -102 c-73
-56 -149 -115 -168 -132 l-35 -29 28 -1 c21 0 59 24 140 87 62 47 124 98 140
112 l27 25 1 -70 c0 -38 3 -87 7 -109 7 -36 10 -40 41 -43 29 -3 33 -1 27 15
-10 26 -25 150 -26 209 0 52 0 52 68 109 120 102 179 184 217 307 l18 57 56 6
c334 38 467 85 602 213 146 137 227 287 286 527 14 60 17 140 19 577 l3 507
80 148 c108 200 114 217 115 343 0 128 -14 165 -104 269 l-62 72 16 62 c44
178 25 311 -61 425 -13 17 -31 54 -39 81 -21 73 -93 129 -189 147 l-34 6 -3
151 c-3 140 -5 155 -26 185 -32 44 -69 61 -160 72 -234 29 -870 37 -1332 18z
m1030 -29 c331 -16 362 -23 414 -93 18 -24 21 -45 24 -162 l4 -135 -59 3 -58
3 -5 80 c-6 92 -25 134 -72 163 -46 27 -75 30 -399 42 -293 12 -821 0 -945
-20 -73 -12 -112 -47 -125 -111 -4 -24 -8 -145 -9 -269 -1 -249 -26 -1089 -33
-1096 -14 -15 -36 605 -38 1103 -2 425 -3 419 81 460 38 19 70 24 220 31 254
13 752 14 1000 1z m110 -149 c96 -12 145 -32 174 -73 21 -28 21 -38 23 -785 2
-416 -1 -908 -5 -1092 -8 -290 -9 -209 -12 605 -1 517 -5 1001 -9 1075 -3 74
-9 -396 -14 -1045 -4 -649 -10 -1227 -14 -1284 l-6 -104 58 7 58 7 -6 -153
c-13 -346 -62 -457 -214 -486 -214 -42 -684 -63 -943 -43 -198 16 -371 38
-437 56 -121 35 -152 122 -169 474 l-7 154 99 -6 99 -7 -3 1253 c-2 688 0
1276 3 1305 5 39 15 62 36 87 36 40 76 50 254 64 156 12 925 6 1035 -9z
m-1518 -587 c-2 -275 -7 -442 -13 -448 -19 -18 -116 -11 -146 11 -50 37 -54
76 -51 444 3 296 5 339 20 367 28 50 54 63 128 63 l65 0 -3 -437z m2004 276
c78 -40 89 -67 91 -236 1 -128 4 -146 23 -173 41 -57 53 -32 41 85 -4 44 -7
81 -6 83 2 2 12 -22 24 -53 15 -40 21 -79 21 -141 0 -101 -14 -141 -62 -174
-34 -22 -36 -28 -42 -94 -4 -39 -11 -438 -16 -886 -9 -868 -11 -897 -61 -1054
-23 -69 -90 -182 -149 -246 l-31 -35 6 65 c14 160 25 502 15 519 -5 10 -21 26
-35 35 l-25 16 0 380 c0 242 4 381 10 385 6 4 10 164 10 446 l0 439 -34 50
c-61 88 -64 171 -12 250 25 38 26 45 26 194 0 180 -1 178 96 173 41 -2 77 -11
110 -28z m-2256 -239 c0 -27 -3 -30 -30 -30 -18 0 -33 6 -36 15 -11 27 4 45
36 45 27 0 30 -3 30 -30z m-84 -85 c10 -8 26 -15 35 -15 13 0 17 -17 23 -94 3
-52 12 -112 20 -133 8 -24 12 -70 10 -128 -2 -49 -4 -139 -4 -200 l-2 -110
-23 135 c-22 134 -29 168 -81 408 -31 146 -27 174 22 137z m192 -458 c22 -21
44 -31 84 -35 l53 -7 -4 -730 c-3 -549 -7 -742 -17 -780 -9 -39 -10 -92 -3
-235 5 -102 13 -209 18 -238 11 -70 -1 -65 -65 30 -56 81 -88 165 -110 286
-18 99 -39 1259 -29 1582 7 224 7 224 25 190 10 -19 32 -48 48 -63z m2422 -39
c66 -90 66 -239 2 -372 -50 -104 -108 -200 -115 -189 -2 4 -8 158 -12 341 l-7
334 52 -38 c29 -21 65 -55 80 -76z m-2220 -133 c9 -28 15 -220 21 -660 4 -341
11 -637 15 -657 6 -34 4 -39 -21 -48 -57 -22 -55 -29 -55 218 0 435 13 1203
21 1195 4 -4 13 -26 19 -48z m-297 -1035 c3 -257 11 -483 17 -519 6 -35 24
-105 40 -155 36 -111 48 -240 30 -315 -33 -140 -158 -163 -220 -40 -45 87 -80
314 -87 569 -7 231 5 328 58 480 96 271 108 309 126 382 10 42 21 71 24 65 4
-7 9 -217 12 -467z m1764 -1176 c-3 -3 -12 -4 -19 -1 -8 3 -5 6 6 6 11 1 17
-2 13 -5z m-92 -20 c-260 -59 -715 -65 -1010 -13 -38 7 -64 14 -56 17 8 3 128
-1 265 -8 200 -10 303 -10 506 0 140 7 257 14 259 16 2 2 25 4 50 3 l46 -1
-60 -14z m-288 -169 c-10 -62 -52 -139 -110 -200 -30 -33 -57 -58 -59 -55 -2
3 -2 33 0 67 l4 62 38 6 c59 10 72 25 78 86 5 53 14 69 41 69 10 0 12 -9 8
-35z m-196 15 c56 0 59 -1 59 -24 0 -51 -8 -56 -81 -56 l-68 0 -7 34 c-7 40 2
60 23 52 8 -3 41 -6 74 -6z m-27 -202 c-9 -87 -24 -97 -24 -17 0 36 3 69 7 72
17 18 22 2 17 -55z"/>
<path d="M2255 4189 c-232 -14 -291 -30 -323 -90 -18 -33 -10 -585 9 -644 10
-30 14 -219 18 -776 l6 -736 30 -49 c44 -72 88 -90 264 -109 203 -23 200 -10
-10 49 -103 29 -129 40 -152 66 l-27 31 2 749 3 748 23 25 c27 28 44 34 143
47 65 8 73 11 105 48 34 40 64 55 137 68 l38 6 -3 -925 c-2 -600 -7 -929 -13
-935 -5 -6 -93 -16 -195 -25 -124 -10 -199 -20 -229 -32 -82 -34 -32 -39 399
-39 489 -1 537 6 587 81 14 20 13 24 -11 48 -34 34 -93 33 -311 -5 -93 -17
-175 -30 -182 -30 -11 0 -13 182 -13 940 0 831 -2 941 -15 946 -22 9 -401 -55
-459 -77 -27 -10 -62 -30 -77 -45 l-28 -26 -11 43 c-7 26 -10 101 -8 198 5
220 19 242 168 261 223 28 851 21 971 -11 40 -10 66 -41 75 -89 4 -16 11 -27
17 -23 11 6 4 205 -8 236 -17 42 -93 59 -355 77 -163 11 -372 11 -565 -1z"/>
<path d="M2275 3930 c-133 -18 -190 -32 -212 -53 -21 -19 -23 -29 -23 -130 0
-100 1 -109 18 -102 88 34 302 65 453 65 156 0 284 11 263 23 -24 14 -375 12
-489 -3 -49 -6 -114 -17 -143 -25 l-53 -13 3 76 c4 92 7 94 138 112 260 36
784 25 826 -17 10 -10 14 -39 14 -99 0 -70 3 -84 16 -84 14 0 15 13 12 95 -4
118 -13 130 -113 146 -89 14 -617 21 -710 9z"/>
<path d="M2711 3610 c-45 -11 -80 -38 -102 -80 -18 -33 -19 -70 -17 -725 1
-379 5 -654 8 -610 l6 80 2 -108 c4 -199 48 -250 220 -249 79 1 102 5 140 24
83 43 79 15 80 629 0 380 3 544 11 552 15 15 16 -1070 0 -1110 -13 -35 -45
-70 -84 -91 -23 -13 -57 -17 -145 -17 -133 0 -162 11 -210 77 -35 48 -41 28
-11 -39 29 -62 63 -76 199 -81 175 -6 264 26 303 111 18 40 19 76 19 747 0
486 -4 717 -11 745 -15 53 -82 120 -134 133 -55 14 -233 22 -274 12z m51 -580
c-1 -318 -6 -489 -12 -485 -6 4 -10 117 -10 296 0 309 -4 340 -50 352 -19 5
-20 13 -20 120 0 64 4 127 10 141 8 22 62 66 80 66 3 0 4 -221 2 -490z m231
470 c15 -12 31 -38 37 -58 13 -47 13 -212 0 -232 -7 -10 -10 26 -10 111 0 114
-2 129 -21 153 -12 15 -31 32 -43 36 -15 6 -16 9 -5 9 9 1 28 -8 42 -19z m-18
-21 l22 -27 5 -668 c3 -370 1 -683 -4 -701 -14 -50 -41 -63 -133 -63 l-80 0
-1 746 -2 746 85 -4 c77 -3 87 -5 108 -29z m-222 -1457 c-20 -5 -52 17 -68 48
-12 24 -15 60 -13 177 l3 146 30 17 c19 10 34 29 40 50 8 25 11 -23 15 -201 4
-177 2 -235 -7 -237z m-106 176 c-2 -24 -4 -7 -4 37 0 44 2 63 4 43 2 -21 2
-57 0 -80z"/>
<path d="M2340 3513 c-24 -10 -30 -25 -30 -83 0 -30 4 -60 8 -66 10 -15 78
-27 113 -19 29 7 29 7 29 79 0 43 -5 77 -12 84 -12 12 -81 15 -108 5z m32 -50
c-10 -4 -10 -8 0 -21 12 -15 11 -16 -4 -3 -19 14 -15 32 5 30 8 0 8 -2 -1 -6z
m45 -13 c1 -11 -4 -20 -12 -20 -8 0 -11 7 -8 20 3 11 8 20 12 20 4 0 7 -9 8
-20z"/>
<path d="M2127 3353 c-8 -50 5 -63 65 -63 70 0 88 12 88 60 l0 40 -74 0 -73 0
-6 -37z"/>
<path d="M2314 3286 c-3 -7 -4 -42 -2 -77 l3 -64 64 -3 c74 -4 81 2 81 68 0
86 -4 90 -76 90 -45 0 -66 -4 -70 -14z m89 -59 c18 -4 17 -5 -5 -6 -23 -1 -28
3 -27 22 1 15 3 17 6 5 2 -9 14 -19 26 -21z"/>
<path d="M2129 3207 c-8 -17 -8 -38 -2 -64 l9 -38 62 -3 c67 -3 66 -4 76 58 8
52 -4 63 -73 68 -57 4 -61 3 -72 -21z m124 -4 c-7 -2 -19 -2 -25 0 -7 3 -2 5
12 5 14 0 19 -2 13 -5z"/>
<path d="M2343 3093 c-39 -5 -45 -20 -37 -99 7 -62 7 -64 40 -70 18 -3 50 -2
71 3 l38 9 3 68 c4 96 -5 103 -115 89z m47 -65 c0 -6 7 -8 15 -4 8 3 15 1 15
-5 0 -18 -53 -5 -56 13 -1 11 3 15 12 11 8 -3 14 -10 14 -15z"/>
<path d="M2124 3005 c-9 -64 4 -77 80 -73 58 3 61 4 69 35 5 17 7 43 3 57 -6
25 -10 26 -76 26 l-69 0 -7 -45z m109 8 c-7 -2 -19 -2 -25 0 -7 3 -2 5 12 5
14 0 19 -2 13 -5z"/>
<path d="M2125 2890 c-13 -22 10 -30 84 -30 82 0 98 5 80 27 -14 16 -154 19
-164 3z"/>
<path d="M2328 2873 c-11 -45 11 -63 78 -63 37 0 57 20 52 52 -3 21 -9 23 -64
26 -52 2 -62 0 -66 -15z"/>
<path d="M2130 2725 l0 -56 73 3 72 3 0 50 0 50 -72 3 -73 3 0 -56z"/>
<path d="M2310 2726 c0 -50 8 -56 75 -56 67 0 75 6 75 56 l0 44 -75 0 -75 0 0
-44z"/>
<path d="M2354 2618 c3 -13 6 -26 6 -30 0 -5 20 -8 45 -8 43 0 45 1 45 30 0
29 -1 30 -51 30 -48 0 -51 -1 -45 -22z"/>
<path d="M2135 2603 c-12 -11 -15 -25 -11 -46 3 -16 6 -33 6 -38 0 -5 31 -9
69 -9 l69 0 5 33 c2 17 1 42 -4 55 -7 19 -16 22 -63 22 -38 0 -60 -5 -71 -17z
m89 -42 c3 -5 -6 -8 -20 -8 -19 0 -22 2 -13 8 18 11 26 11 33 0z"/>
<path d="M2312 2498 l3 -53 67 -3 c64 -3 68 -2 73 21 4 14 5 38 3 53 -3 29 -4
29 -76 32 l-73 3 3 -53z"/>
<path d="M2125 2470 c-3 -11 -3 -29 0 -40 6 -19 14 -21 73 -18 l67 3 3 38 3
37 -70 0 c-61 0 -70 -3 -76 -20z"/>
<path d="M2317 2394 c-4 -4 -7 -31 -7 -60 0 -60 5 -64 86 -64 48 0 54 2 60 23
3 13 4 41 2 63 l-3 39 -65 3 c-36 2 -69 0 -73 -4z"/>
<path d="M2126 2335 c-10 -27 -7 -80 6 -93 17 -17 123 -16 137 2 7 8 11 34 9
58 l-3 43 -71 3 c-59 2 -73 0 -78 -13z m112 -12 c-21 -2 -55 -2 -75 0 -21 2
-4 4 37 4 41 0 58 -2 38 -4z"/>
<path d="M2356 2224 c-9 -23 -7 -87 3 -102 5 -9 24 -12 52 -10 l44 3 3 63 3
62 -49 0 c-36 0 -52 -4 -56 -16z"/>
<path d="M2132 2103 l3 -58 70 0 70 0 0 55 0 55 -73 3 -73 3 3 -58z m103 7 c3
-5 2 -10 -4 -10 -5 0 -13 5 -16 10 -3 6 -2 10 4 10 5 0 13 -4 16 -10z"/>
<path d="M2382 2093 l-53 -4 3 -67 3 -67 61 -3 62 -3 4 38 c7 52 -2 113 -16
111 -6 -1 -35 -3 -64 -5z m43 -73 c3 -5 1 -10 -4 -10 -6 0 -11 5 -11 10 0 6 2
10 4 10 3 0 8 -4 11 -10z"/>
<path d="M2168 2023 c-34 -4 -38 -7 -38 -32 0 -27 3 -29 55 -36 77 -9 95 -2
95 41 0 33 -1 34 -37 32 -21 -1 -55 -3 -75 -5z"/>
<path d="M2468 1503 c7 -3 16 -2 19 1 4 3 -2 6 -13 5 -11 0 -14 -3 -6 -6z"/>
<path d="M2540 1501 c53 -17 91 -43 118 -83 22 -34 27 -53 27 -104 0 -55 -4
-67 -31 -101 -63 -77 -140 -96 -222 -54 -63 32 -102 98 -102 173 l0 58 -49 0
c-58 0 -61 -5 -61 -95 0 -74 14 -88 80 -84 35 3 41 -1 72 -41 47 -62 109 -93
172 -86 59 7 115 42 146 91 29 48 38 146 17 196 -31 76 -110 140 -169 138 -22
-1 -22 -1 2 -8z m-230 -166 c0 -41 -2 -45 -25 -45 -17 0 -25 5 -24 18 0 10 3
12 6 4 7 -19 23 -4 23 24 0 26 -9 31 -28 12 -9 -9 -12 -7 -12 10 0 18 6 22 30
22 29 0 30 -2 30 -45z"/>
<path d="M2461 1422 c-67 -34 -90 -121 -48 -183 28 -41 60 -59 111 -59 31 0
45 7 77 39 33 33 39 45 39 82 0 53 -28 102 -69 124 -39 20 -68 19 -110 -3z"/>
<path d="M1922 1378 c-14 -14 -16 -76 -3 -96 5 -9 31 -12 92 -10 l84 3 0 55 0
55 -80 3 c-54 2 -84 -1 -93 -10z m126 -35 c-15 -2 -42 -2 -60 0 -18 2 -6 4 27
4 33 0 48 -2 33 -4z"/>
<path d="M2752 1378 c-17 -17 -16 -115 2 -125 8 -4 46 -7 85 -5 l71 4 0 63 c0
48 -4 64 -16 69 -28 11 -130 6 -142 -6z m118 -43 c0 -11 -11 -15 -40 -15 -29
0 -40 4 -40 15 0 11 11 15 40 15 29 0 40 -4 40 -15z"/>
<path d="M3073 1383 c-20 -7 -17 -99 3 -107 28 -11 120 -6 132 6 18 18 15 95
-4 102 -18 7 -113 7 -131 -1z m107 -48 c0 -11 -11 -15 -40 -15 -29 0 -40 4
-40 15 0 11 11 15 40 15 29 0 40 -4 40 -15z"/>
<path d="M3487 3640 c-55 -43 -57 -148 -4 -185 55 -39 138 -4 159 68 10 34 13
38 16 19 13 -80 -78 -147 -151 -111 -21 10 -21 9 2 -10 29 -26 67 -27 108 -1
64 39 84 111 49 178 -31 60 -127 83 -179 42z m97 -29 c9 -10 19 -34 23 -53 4
-28 1 -39 -18 -57 -60 -56 -148 17 -108 90 20 38 77 49 103 20z"/>
<path d="M3583 3197 c-44 -19 -58 -102 -23 -137 24 -24 82 -27 99 -6 13 15 6
96 -10 127 -11 21 -39 28 -66 16z m37 -76 c0 -11 -26 -22 -34 -14 -12 12 -5
23 14 23 11 0 20 -4 20 -9z"/>
</g>
</svg>